<svg id="Layer_1" data-name="Layer 1" xmlns="http://www.w3.org/2000/svg" xmlns:xlink="http://www.w3.org/1999/xlink" viewBox="0 0 78.08 90.15"><defs><style>.cls-1,.cls-2,.cls-4{fill:#fff;}.cls-2,.cls-4{stroke:#fff;stroke-linecap:round;stroke-miterlimit:10;}.cls-3{clip-path:url(#clip-path);}.cls-4{stroke-width:0.25px;}</style><clipPath id="clip-path" transform="translate(-11.56 -5.42)"><polygon class="cls-1" points="59.31 32.1 59.31 70.32 77.02 60.07 77.02 67.52 52.78 81.51 52.78 20.91 77.02 33.97 77.02 41.42 59.31 32.1"/></clipPath></defs><title>Untitled-1</title><path class="cls-2" d="M50.6,6,12.06,28.25v44.5L50.6,95,89.14,72.75V28.25Zm32,63.25L50.92,87.54,19.22,69.25V32.68l31.7-18.29L82.61,32.68Z" transform="translate(-11.56 -5.42)"/><polygon class="cls-1" points="47.75 26.68 47.75 64.9 65.46 54.65 65.46 62.1 41.22 76.09 41.22 15.49 65.46 28.55 65.46 36 47.75 26.68"/><g class="cls-3"><path class="cls-2" d="M50.92,14.39,19.22,32.68V69.25l31.7,18.29L82.61,69.25V32.68ZM49,81.51l-7.46-4.66v-27L30.41,54.47V69.39l-6.53-3.73V34.9L49,20.91ZM77,41.42,59.31,32.1V70.32L77,60.07v7.45l-24.24,14V20.91L77,34Z" transform="translate(-11.56 -5.42)"/><polygon class="cls-2" points="12.32 29.48 37.49 15.49 37.49 76.09 30.03 71.43 30.03 44.39 18.85 49.05 18.85 63.97 12.32 60.24 12.32 29.48"/><polygon class="cls-2" points="47.75 26.68 47.75 64.9 65.46 54.65 65.46 62.1 41.22 76.09 41.22 15.49 65.46 28.55 65.46 36 47.75 26.68"/><polygon class="cls-2" points="37.49 15.49 37.49 76.09 30.03 71.43 30.03 44.39 18.85 49.05 18.85 63.97 12.32 60.24 12.32 29.48 37.49 15.49"/></g><path class="cls-2" d="M23.88,34.9V65.66l6.53,3.73V54.47l11.18-4.66v27L49,81.51V20.91Zm17.71,7.45L30.41,47V38.63L41.59,33Z" transform="translate(-11.56 -5.42)"/><polygon class="cls-2" points="47.75 26.68 47.75 64.9 65.46 54.65 65.46 62.1 41.22 76.09 41.22 15.49 65.46 28.55 65.46 36 47.75 26.68"/><path class="cls-2" d="M91,8.8" transform="translate(-11.56 -5.42)"/><path class="cls-2" d="M63,50.74" transform="translate(-11.56 -5.42)"/><path class="cls-4" d="M35.67,77.23" transform="translate(-11.56 -5.42)"/><path class="cls-4" d="M39.49,78.5" transform="translate(-11.56 -5.42)"/></svg>