<?xml version="1.0" ?><!DOCTYPE svg  PUBLIC '-//W3C//DTD SVG 1.1//EN'  'http://www.w3.org/Graphics/SVG/1.1/DTD/svg11.dtd'><svg id="Lager_1" style="enable-background:new 0 0 128 128;" version="1.1" viewBox="0 0 128 128" xml:space="preserve" xmlns="http://www.w3.org/2000/svg" xmlns:xlink="http://www.w3.org/1999/xlink"><g><circle cx="64" cy="64" r="50" style="fill:#4C3C1E;"/><g id="Ai"><g><path d="M51,72.9L47.6,84h-7.4l12.5-39.1h9.1L74.6,84h-7.7l-3.5-11.1H51z M62.2,67.5l-3.1-9.6     c-0.8-2.4-1.4-5-2-7.3H57c-0.6,2.3-1.2,5-1.9,7.3l-3,9.6H62.2z" style="fill:#FFAA2B;"/><path d="M85,47.9c0,2.1-1.6,3.8-4.1,3.8c-2.4,0-3.9-1.7-3.9-3.8c0-2.2,1.6-3.9,4-3.9S84.9,45.7,85,47.9z      M77.4,84V55.8h7.2V84H77.4L77.4,84z" style="fill:#FFAA2B;"/></g></g></g></svg>