<svg id="Layer_1" data-name="Layer 1" xmlns="http://www.w3.org/2000/svg" viewBox="0 0 90.15 78"><defs><style>.cls-1,.cls-3,.cls-4,.cls-8{fill:#081a20;}.cls-1,.cls-5,.cls-6,.cls-7,.cls-8{stroke:#fff;}.cls-1,.cls-2,.cls-3,.cls-4,.cls-5,.cls-6,.cls-7,.cls-8{stroke-linecap:round;stroke-miterlimit:10;}.cls-2,.cls-5{fill:#fff;}.cls-2,.cls-3,.cls-4{stroke:#081a20;}.cls-3,.cls-7,.cls-8{stroke-width:0.25px;}.cls-3,.cls-4{opacity:0.5;isolation:isolate;}.cls-6,.cls-7{fill:none;}</style></defs><title>dlayout</title><polygon class="cls-1" points="89.58 39.04 67.3 77.5 22.8 77.5 0.58 38.96 22.86 0.5 67.36 0.5 89.58 39.04"/><path class="cls-2" d="M85.48-2.49" transform="translate(0)"/><path class="cls-3" d="M18.78,54.87" transform="translate(0)"/><path class="cls-3" d="M21.48,57.88" transform="translate(0)"/><path class="cls-4" d="M41,21" transform="translate(0)"/><path class="cls-5" d="M60.34,20H28.2c-2.74,0-2.81,2.2-2.81,2.2v30c0,2.19,3.65,1.9,3.65,1.9H61.17c3.15,0,3.59-1.9,3.59-1.9v-30C64.76,19.58,60.34,20,60.34,20Zm1.89,30.13s-.38,1.63-3.12,1.63h-28S28,52,28,50.16V24.3s.06-1.9,2.45-1.9h28s3.85-.38,3.85,1.9Z" transform="translate(0)"/><path class="cls-6" d="M62.23,24.3V50.16s-.38,1.63-3.12,1.63h-28S28,52,28,50.16V24.3s.06-1.9,2.45-1.9h28S62.23,22,62.23,24.3Z" transform="translate(0)"/><path class="cls-6" d="M62.23,24.3V50.16s-.38,1.63-3.12,1.63h-28S28,52,28,50.16V24.3s.06-1.9,2.45-1.9h28S62.23,22,62.23,24.3Z" transform="translate(0)"/><polygon class="cls-5" points="31.65 58.98 59.9 58.98 57.71 56.78 33.59 56.78 31.65 58.98"/><rect class="cls-7" x="31.56" y="25.71" width="21.35" height="7.69"/><line class="cls-7" x1="34.15" y1="27.83" x2="49.99" y2="27.83"/><line class="cls-8" x1="34.15" y1="29.82" x2="49.99" y2="29.82"/><line class="cls-8" x1="34.15" y1="31.68" x2="49.99" y2="31.68"/><rect class="cls-8" x="53.83" y="25.71" width="5.77" height="11.38"/><rect class="cls-8" x="53.83" y="39.24" width="5.77" height="9.61"/><rect class="cls-8" x="34.48" y="34.46" width="3.25" height="2.92"/><rect class="cls-8" x="40.16" y="34.46" width="3.25" height="2.92"/><rect class="cls-8" x="45.77" y="34.46" width="3.25" height="2.92"/><polygon class="cls-8" points="31.56 39.23 41 39.23 41.78 39.23 41.78 47.45 31.56 47.45 31.56 39.23"/><rect class="cls-8" x="42.5" y="39.24" width="3.27" height="3.18"/><polyline class="cls-8" points="45.77 42.42 52.91 42.42 52.91 39.23 45.77 39.23"/><line class="cls-8" x1="46.81" y1="40.3" x2="51.71" y2="40.3"/><line class="cls-8" x1="46.81" y1="41.36" x2="51.71" y2="41.36"/><rect class="cls-8" x="42.5" y="43.01" width="10.41" height="4.44"/><line class="cls-8" x1="45.77" y1="43.01" x2="45.77" y2="47.46"/><line class="cls-8" x1="49.99" y1="43.01" x2="49.99" y2="47.46"/><path class="cls-8" d="M31.56,47.85" transform="translate(0)"/><polygon class="cls-8" points="31.56 48.85 52.91 48.85 52.91 48.19 31.56 48.19 31.56 48.52 31.56 48.85"/></svg>