<?xml version="1.0" encoding="utf-8"?>
<!-- Generator: Adobe Illustrator 21.0.2, SVG Export Plug-In . SVG Version: 6.00 Build 0)  -->
<svg version="1.1" id="Layer_1" xmlns="http://www.w3.org/2000/svg" xmlns:xlink="http://www.w3.org/1999/xlink" x="0px" y="0px"
	 viewBox="0 0 90.2 78" style="enable-background:new 0 0 90.2 78;" xml:space="preserve">
<style type="text/css">
	.st0{fill:#339999;stroke:#339999;stroke-linecap:round;stroke-miterlimit:10;}
	.st1{fill:#FFFFFF;stroke:#081A20;stroke-linecap:round;stroke-miterlimit:10;}
	
		.st2{opacity:0.1;fill:#339999;stroke:#081A20;stroke-width:0.25;stroke-linecap:round;stroke-miterlimit:10;enable-background:new    ;}
	.st3{opacity:0.1;fill:#339999;stroke:#081A20;stroke-linecap:round;stroke-miterlimit:10;enable-background:new    ;}
	.st4{fill:#339999;}
</style>
<title>fb</title>
<path class="st0" d="M77,57.5V20.6L45.1,2.1l-32,18.4v36.9L45,75.9L77,57.5z M18.3,54.2V23.8L44.7,8.7l26.2,15.2v30.3L44.6,69.4
	L18.3,54.2z"/>
<path class="st1" d="M85.5-2.7"/>
<path class="st2" d="M23.3,52"/>
<path class="st2" d="M25.5,54.5"/>
<path class="st3" d="M41,21"/>
<path class="st4" d="M52.1,41.7h-4.7v17.5h-7.2V41.7h-3.4v-6.2h3.4v-4c0-2.8,1.3-7.3,7.3-7.3h5.3v6h-3.9c-0.8-0.1-1.5,0.6-1.5,1.3
	c0,0.1,0,0.2,0,0.4v3.7h5.4L52.1,41.7z"/>
</svg>
