<?xml version="1.0" encoding="utf-8"?>
<!-- Generator: Adobe Illustrator 21.0.2, SVG Export Plug-In . SVG Version: 6.00 Build 0)  -->
<svg version="1.1" id="Layer_1" xmlns="http://www.w3.org/2000/svg" xmlns:xlink="http://www.w3.org/1999/xlink" x="0px" y="0px"
	 viewBox="0 0 90.2 78" style="enable-background:new 0 0 90.2 78;" xml:space="preserve">
<style type="text/css">
	.st0{fill:#339999;stroke:#339999;stroke-linecap:round;stroke-miterlimit:10;}
	.st1{fill:#FFFFFF;stroke:#081A20;stroke-linecap:round;stroke-miterlimit:10;}
	
		.st2{opacity:0.1;fill:#339999;stroke:#339999;stroke-width:0.25;stroke-linecap:round;stroke-miterlimit:10;enable-background:new    ;}
	.st3{opacity:0.1;fill:#339999;stroke:#339999;stroke-linecap:round;stroke-miterlimit:10;enable-background:new    ;}
</style>
<title>gg</title>
<path class="st0" d="M77.9,58.4v-38l-32.8-19l-32.9,19v38l32.8,19L77.9,58.4z M17.5,55V23.8L44.6,8.2l27,15.7v31.2l-27,15.5L17.5,55
	z"/>
<path class="st1" d="M85.5-2.7"/>
<path class="st2" d="M16.9,50"/>
<path class="st2" d="M21.5,57.7"/>
<path class="st3" d="M41.1,18.1"/>
<path class="st0" d="M24.6,40.4c0,5.6,3.5,10.5,8.8,12.3c4.9,1.6,10.8,0.4,14-3.7c2.4-2.9,2.9-6.8,2.6-10.4c-4.1,0-8.3,0-12.4,0
	c0,1.5,0,3,0,4.4c2.5,0.1,5,0,7.5,0.1c-0.5,2.2-2.1,4-4.2,4.9c-4.2,1.8-9.5-0.6-10.9-5c-1.5-4.3,0.8-9,5.1-10.5c0.1,0,0.1,0,0.2-0.1
	c2.7-0.9,5.4,0.1,7.7,1.5c1.2-1.1,2.2-2.2,3.3-3.4c-2.6-2.3-5.9-3.4-9.4-3.2C30.2,27.5,24.3,33.7,24.6,40.4z"/>
<path class="st0" d="M58.1,34.8c0,1.2,0,2.5,0,3.7h-3.7v3.7h3.7c0,1.2,0,2.5,0,3.7h3.7c0-1.2,0-2.5,0-3.7h3.7v-3.7h-3.7
	c0-1.2,0-2.5,0-3.7H58.1z"/>
<path class="st0" d="M24.6,40.4c-0.3-6.7,5.6-12.9,12.3-13c3.4-0.2,6.8,1,9.4,3.2C45.2,31.8,44.2,33,43,34c-2.3-1.4-5-2.4-7.7-1.5
	c-4.3,1.4-6.7,6-5.4,10.3c0,0.1,0,0.1,0.1,0.2c1.3,4.4,6.6,6.8,10.9,5c2.1-0.9,3.7-2.7,4.2-4.9c-2.5,0-5,0-7.5-0.1c0-1.5,0-3,0-4.4
	c4.1,0,8.3,0,12.4,0c0.3,3.6-0.3,7.5-2.6,10.4c-3.2,4.1-9.2,5.4-14,3.7C28.1,50.9,24.6,46,24.6,40.4z"/>
<path class="st0" d="M58.1,34.8h3.7c0,1.2,0,2.5,0,3.7h3.7v3.7h-3.7c0,1.2,0,2.5,0,3.7h-3.7c0-1.2,0-2.5,0-3.7h-3.7v-3.7h3.7
	C58.1,37.3,58.1,36.1,58.1,34.8z"/>
</svg>
