<?xml version="1.0" encoding="utf-8"?>
<!-- Generator: Adobe Illustrator 21.0.2, SVG Export Plug-In . SVG Version: 6.00 Build 0)  -->
<svg version="1.1" id="Layer_1" xmlns="http://www.w3.org/2000/svg" xmlns:xlink="http://www.w3.org/1999/xlink" x="0px" y="0px"
	 viewBox="0 0 90.2 78" style="enable-background:new 0 0 90.2 78;" xml:space="preserve">
<style type="text/css">
	.st0{fill:#339999;stroke:#339999;stroke-linecap:round;stroke-miterlimit:10;}
	.st1{fill:#FFFFFF;stroke:#081A20;stroke-linecap:round;stroke-miterlimit:10;}
	
		.st2{opacity:0.1;fill:#339999;stroke:#339999;stroke-width:0.25;stroke-linecap:round;stroke-miterlimit:10;enable-background:new    ;}
	.st3{opacity:0.1;fill:#339999;stroke:#339999;stroke-linecap:round;stroke-miterlimit:10;enable-background:new    ;}
</style>
<title>ig</title>
<path class="st0" d="M77,57V20.2L45.2,1.7l-32,18.4v36.8l31.9,18.5L77,57z M18.4,53.7V23.4L44.7,8.2l26.2,15.2v30.3L44.6,68.9
	L18.4,53.7z"/>
<path class="st1" d="M85.5-2.7"/>
<path class="st2" d="M18.8,54.7"/>
<path class="st2" d="M21.5,57.7"/>
<path class="st3" d="M41,21"/>
<path class="st0" d="M52.4,27.5H37.8c-2.3,0-4.2,1.9-4.2,4.2v14.6c0,2.3,1.9,4.2,4.2,4.2h14.6c2.3,0,4.2-1.9,4.2-4.2V31.8
	C56.6,29.5,54.7,27.5,52.4,27.5z M45.1,46.6c-4.2,0-7.6-3.4-7.6-7.6s3.4-7.6,7.6-7.6s7.6,3.4,7.6,7.6l0,0
	C52.6,43.2,49.3,46.6,45.1,46.6z M52.9,33c-1,0-1.8-0.8-1.8-1.8s0.8-1.8,1.8-1.8s1.8,0.8,1.8,1.8S53.9,33,52.9,33L52.9,33z"/>
<path class="st0" d="M45.1,34.3c-2.6,0-4.7,2.1-4.7,4.7s2.1,4.7,4.7,4.7c2.6,0,4.7-2.1,4.7-4.7C49.8,36.4,47.7,34.3,45.1,34.3z"/>
</svg>
