<?xml version="1.0" encoding="utf-8"?>
<!-- Generator: Adobe Illustrator 21.0.2, SVG Export Plug-In . SVG Version: 6.00 Build 0)  -->
<svg version="1.1" id="Layer_1" xmlns="http://www.w3.org/2000/svg" xmlns:xlink="http://www.w3.org/1999/xlink" x="0px" y="0px"
	 viewBox="0 0 90.2 78" style="enable-background:new 0 0 90.2 78;" xml:space="preserve">
<style type="text/css">
	.st0{fill:#339999;stroke:#339999;stroke-linecap:round;stroke-miterlimit:10;}
	.st1{fill:#FFFFFF;stroke:#081A20;stroke-linecap:round;stroke-miterlimit:10;}
	
		.st2{opacity:0.1;fill:#081A20;stroke:#081A20;stroke-width:0.25;stroke-linecap:round;stroke-miterlimit:10;enable-background:new    ;}
	.st3{opacity:0.1;fill:#081A20;stroke:#081A20;stroke-linecap:round;stroke-miterlimit:10;enable-background:new    ;}
	.st4{fill:#F1F2F2;}
</style>
<title>in</title>
<path class="st0" d="M77.9,58.3v-38l-32.8-19l-32.9,19v38l32.8,19L77.9,58.3z M17.5,54.9V23.7L44.7,8.1l27,15.7V55L44.6,70.6
	L17.5,54.9z"/>
<polygon class="st0" points="44.6,70.6 17.5,54.9 17.5,23.7 44.7,8.1 71.7,23.7 71.7,55 "/>
<path class="st1" d="M85.5-2.7"/>
<path class="st2" d="M22.6,52.7"/>
<path class="st2" d="M24.9,55.2"/>
<path class="st3" d="M41.6,23.9"/>
<path class="st4" d="M60.9,42.7v11.7h-6.7V43.5c0-2.7-1-4.6-3.4-4.6c-1.6,0-3,1-3.5,2.5C47,41.9,47,42.5,47,43v11.4h-6.8
	c0,0,0.1-18.4,0-20.4H47v2.9V37l0,0v-0.1c1.2-2.2,3.6-3.5,6.1-3.4C57.5,33.6,60.9,36.5,60.9,42.7L60.9,42.7z M33.1,24.2
	c-2.3,0-3.8,1.5-3.8,3.5c0,1.9,1.6,3.5,3.5,3.5c0.1,0,0.2,0,0.2,0l0,0c2.4,0,3.8-1.6,3.8-3.5s-1.6-3.5-3.5-3.5
	C33.3,24.2,33.2,24.2,33.1,24.2z M29.7,54.4h6.8V34h-6.8V54.4z"/>
</svg>
