<?xml version="1.0" ?><!DOCTYPE svg  PUBLIC '-//W3C//DTD SVG 1.1//EN'  'http://www.w3.org/Graphics/SVG/1.1/DTD/svg11.dtd'><svg id="Lager_1" style="enable-background:new 0 0 128 128;" version="1.1" viewBox="0 0 128 128" xml:space="preserve" xmlns="http://www.w3.org/2000/svg" xmlns:xlink="http://www.w3.org/1999/xlink"><g><g><circle cx="64" cy="64" r="50" style="fill:#3A2641;"/></g><g><path d="M53.5,43c-3.8,0-7.1,0.3-9.8,0.8l-0.4,0.1V83h7.3V68.5c0.7,0.1,1.6,0.1,2.6,0.1    c4.8,0,8.9-1.5,11.4-4.3c2.1-2.2,3.1-5.3,3.1-9.1c0-3.6-1.3-6.8-3.6-8.9C61.7,44.1,58.2,43,53.5,43z M60.3,55.5    c0,4.2-2.6,6.6-7.2,6.6c-0.9,0-1.9,0-2.6-0.2V49.6c0.6-0.1,1.6-0.2,3.2-0.2C58,49.4,60.3,51.6,60.3,55.5z" style="fill:#D757FF;"/><path d="M86.6,53.6c-0.5-0.1-0.9-0.2-1.6-0.2c-2.3,0-5.1,1.4-6.7,4.6l-0.2-4h-6.5v0.5c0.1,2.4,0.2,5,0.2,9    V83h7.3V68c0-0.8,0.1-1.5,0.2-2.1c0.6-3.1,2.5-4.9,5.2-4.9c0.7,0,1.2,0.1,1.8,0.2l0.6,0.1v-7.7H86.6z" style="fill:#D757FF;"/></g></g></svg>