<?xml version="1.0" encoding="utf-8"?>
<!-- Generator: Adobe Illustrator 21.0.2, SVG Export Plug-In . SVG Version: 6.00 Build 0)  -->
<svg version="1.1" id="Layer_1" xmlns="http://www.w3.org/2000/svg" xmlns:xlink="http://www.w3.org/1999/xlink" x="0px" y="0px"
	 viewBox="0 0 90.2 78" style="enable-background:new 0 0 90.2 78;" xml:space="preserve">
<style type="text/css">
	.st0{fill:#339999;stroke:#339999;stroke-linecap:round;stroke-miterlimit:10;}
	.st1{fill:#FFFFFF;stroke:#081A20;stroke-linecap:round;stroke-miterlimit:10;}
	
		.st2{opacity:0.1;fill:#081A20;stroke:#081A20;stroke-width:0.25;stroke-linecap:round;stroke-miterlimit:10;enable-background:new    ;}
	.st3{opacity:0.1;fill:#081A20;stroke:#081A20;stroke-linecap:round;stroke-miterlimit:10;enable-background:new    ;}
</style>
<title>tw</title>
<path class="st0" d="M78,58.1V20L45.1,0.9l-33,19V58L45,77.1L78,58.1z M17.5,54.6V23.3L44.6,7.7l27.1,15.7v31.3L44.6,70.3L17.5,54.6
	z"/>
<path class="st1" d="M85.5-2.7"/>
<path class="st2" d="M18.8,54.7"/>
<path class="st2" d="M24.5,61"/>
<path class="st3" d="M41.6,23.6"/>
<path class="st0" d="M60.6,30.3c-1.2,0.5-2.4,0.9-3.7,1c1.3-0.8,2.3-2.1,2.8-3.5c-1.3,0.7-2.6,1.3-4.1,1.5c-2.4-2.6-6.5-2.7-9-0.3
	c-1.7,1.6-2.4,3.9-1.9,6.1c-5.1-0.3-9.9-2.7-13.2-6.7c-1.7,2.9-0.8,6.7,2,8.5c-1,0-2-0.3-2.9-0.8v0.1c0,3,2.2,5.6,5.1,6.2
	c-0.9,0.3-1.9,0.3-2.9,0.1c0.8,2.6,3.2,4.4,6,4.4c-2.7,2.1-6.1,3.1-9.5,2.7c2.9,1.9,6.3,2.9,9.8,2.9c11.7,0,18.2-9.7,18.2-18.2
	c0-0.3,0-0.5,0-0.8C58.7,32.7,59.8,31.6,60.6,30.3L60.6,30.3z"/>
</svg>
