<svg id="Layer_1" data-name="Layer 1" xmlns="http://www.w3.org/2000/svg" viewBox="0 0 90.16 78.11"><defs><style>.cls-1,.cls-3,.cls-4{fill:#081a20;}.cls-1,.cls-2,.cls-3,.cls-4{stroke:#081a20;stroke-linecap:round;stroke-miterlimit:10;}.cls-2{fill:#fff;}.cls-3{stroke-width:0.25px;}.cls-3,.cls-4{opacity:0.1;}</style></defs><title>webdes</title><path class="cls-1" d="M72.88,12l-44.5,0L6.1,50.46,28.32,89l44.5,0L95.1,50.54Zm-4,70.78-36.59,0L14,51,32.36,19.36l36.6,0L87.23,51.1Z" transform="translate(-5.52 -11.44)"/><path class="cls-2" d="M91,8.8" transform="translate(-5.52 -11.44)"/><path class="cls-3" d="M24.3,66.16" transform="translate(-5.52 -11.44)"/><path class="cls-3" d="M27,69.17" transform="translate(-5.52 -11.44)"/><path class="cls-4" d="M46.5,32.5" transform="translate(-5.52 -11.44)"/><g id="Layer_2" data-name="Layer 2"><path class="cls-1" d="M59.24,57.3c-6.93,5.75-8.93,4.21-12.54-.23s-3.08-6.14,2.51-10.74c6.94-5.72,18.91-14.47,22.56-10.07S66.16,51.56,59.24,57.3Z" transform="translate(-5.52 -11.44)"/><path class="cls-1" d="M47.81,64.12a7.81,7.81,0,0,1-6.9,7.76,9.09,9.09,0,0,1-.91,0,7.78,7.78,0,0,1-5.2-2,.17.17,0,0,0-.06-.06,13.81,13.81,0,0,1-2.24-3.58c-2.74-6.08-3-14.82-3-14.82.27,3,2,5.65,4.18,8a7.81,7.81,0,0,1,14.13,4.59Z" transform="translate(-5.52 -11.44)"/><path class="cls-1" d="M34.74,69.9a7.68,7.68,0,0,1-2.24-3.58A13.81,13.81,0,0,0,34.74,69.9Z" transform="translate(-5.52 -11.44)"/><path class="cls-1" d="M24.5,58.5" transform="translate(-5.52 -11.44)"/><path class="cls-1" d="M40.91,71.88h-.06a6,6,0,0,1-6-1.93,7.78,7.78,0,0,0,5.2,2A9.09,9.09,0,0,0,40.91,71.88Z" transform="translate(-5.52 -11.44)"/></g></svg>