<svg xmlns="http://www.w3.org/2000/svg" viewBox="0 0 89 77.12"><defs><style>.cls-1{fill:#f2f2f2;}.cls-2,.cls-3,.cls-4{fill:#fff;}.cls-2{stroke:#fff;}.cls-2,.cls-4{stroke-linecap:round;}.cls-2,.cls-4,.cls-7{stroke-miterlimit:10;}.cls-4{stroke:#000;stroke-width:0.25px;}.cls-5{fill:none;}.cls-6,.cls-7{fill:#081a1f;}.cls-7{stroke:#081a1f;}</style></defs><title>webdev</title><g id="Layer_1" data-name="Layer 1"><path class="cls-1" d="M72.88,12l-44.5,0L6.1,50.46,28.32,89l44.5,0L95.1,50.54ZM29.5,38.5a2,2,0,0,1,2-2h38a2,2,0,0,1,2,2v18a2,2,0,0,1-2,2h-38a2,2,0,0,1-2-2Zm42,26h-42s-3-1-3-4h48C73.5,64.5,71.5,64.5,71.5,64.5Z" transform="translate(-6.1 -11.94)"/><path class="cls-2" d="M91,8.8" transform="translate(-6.1 -11.94)"/><path class="cls-3" d="M24.3,66.16" transform="translate(-6.1 -11.94)"/><path class="cls-4" d="M27,69.17" transform="translate(-6.1 -11.94)"/><path class="cls-3" d="M71.5,38.5v18a2,2,0,0,1-2,2h-38a2,2,0,0,1-2-2v-18a2,2,0,0,1,2-2h38A2,2,0,0,1,71.5,38.5Z" transform="translate(-6.1 -11.94)"/><path class="cls-3" d="M74.5,60.5c-1,4-3,4-3,4h-42s-3-1-3-4Z" transform="translate(-6.1 -11.94)"/><path class="cls-3" d="M34.14,54.91V40.59A1.56,1.56,0,0,1,35.73,39H66a1.56,1.56,0,0,1,1.59,1.59V54.91A1.56,1.56,0,0,1,66,56.5H35.73A1.56,1.56,0,0,1,34.14,54.91Z" transform="translate(-6.1 -11.94)"/><line class="cls-5" x1="43.4" y1="50.56" x2="46.4" y2="50.56"/></g><path class="cls-6" d="M72.88,12l-44.5,0L6.1,50.46,28.32,89l44.5,0L95.1,50.54ZM29.5,38.5a2,2,0,0,1,2-2h38a2,2,0,0,1,2,2v18a2,2,0,0,1-2,2h-38a2,2,0,0,1-2-2Zm42,26h-42s-3-1-3-4h48C73.5,64.5,71.5,64.5,71.5,64.5Z" transform="translate(-6.1 -11.94)"/><path class="cls-2" d="M91,8.8" transform="translate(-6.1 -11.94)"/><path class="cls-3" d="M24.3,66.16" transform="translate(-6.1 -11.94)"/><path class="cls-4" d="M27,69.17" transform="translate(-6.1 -11.94)"/><path class="cls-3" d="M71.5,38.5v18a2,2,0,0,1-2,2h-38a2,2,0,0,1-2-2v-18a2,2,0,0,1,2-2h38A2,2,0,0,1,71.5,38.5Z" transform="translate(-6.1 -11.94)"/><path class="cls-3" d="M74.5,60.5c-1,4-3,4-3,4h-42s-3-1-3-4Z" transform="translate(-6.1 -11.94)"/><path class="cls-6" d="M34.14,54.91V40.59A1.56,1.56,0,0,1,35.73,39H66a1.56,1.56,0,0,1,1.59,1.59V54.91A1.56,1.56,0,0,1,66,56.5H35.73A1.56,1.56,0,0,1,34.14,54.91Z" transform="translate(-6.1 -11.94)"/><line class="cls-5" x1="46.4" y1="50.56" x2="43.4" y2="50.56"/><line class="cls-7" x1="42.4" y1="50.56" x2="47.4" y2="50.56"/></svg>