<svg id="Layer_1" data-name="Layer 1" xmlns="http://www.w3.org/2000/svg" viewBox="0 0 90.15 78"><defs><style>.cls-1,.cls-3,.cls-4{fill:#081a20;}.cls-1,.cls-2,.cls-3,.cls-4,.cls-5,.cls-6,.cls-7{stroke:#081a20;}.cls-1,.cls-2,.cls-3,.cls-4,.cls-5,.cls-6,.cls-7,.cls-8{stroke-linecap:round;stroke-miterlimit:10;}.cls-2,.cls-5{fill:#fff;}.cls-3,.cls-5,.cls-6,.cls-7,.cls-8{stroke-width:0.25px;}.cls-3,.cls-4{opacity:0.5;isolation:isolate;}.cls-6{fill:none;}.cls-7,.cls-8{fill:#081a1f;}.cls-8{stroke:#081a1f;}</style></defs><title>webres</title><path class="cls-1" d="M67.36.35H22.86L.58,38.81,22.8,77.35H67.3L89.58,38.89Zm-4,70.78H26.77L8.48,39.35,26.84,7.71h36.6L81.71,39.45Z" transform="translate(0 0.15)"/><polygon class="cls-1" points="81.71 39.6 63.36 71.28 26.77 71.28 8.48 39.5 26.84 7.86 63.44 7.86 81.71 39.6"/><path class="cls-2" d="M85.48-2.64" transform="translate(0 0.15)"/><path class="cls-3" d="M18.78,54.72" transform="translate(0 0.15)"/><path class="cls-3" d="M21.48,57.73" transform="translate(0 0.15)"/><path class="cls-4" d="M41,20.85" transform="translate(0 0.15)"/><g id="Layer_2" data-name="Layer 2"><path class="cls-5" d="M51,52.43V25.52c0-1.61-1.84-1.68-1.84-1.68H26.69c-1.48,0-1.66,1.68-1.66,1.68V52.43a2,2,0,0,0,1.66,1.84H49.2A1.62,1.62,0,0,0,51,52.43Zm-3.9-1.73H28.78a1.62,1.62,0,0,1-1.35-1.53V26.74s.15-1.41,1.35-1.41H47.14s1.51.06,1.51,1.41V49.17A1.34,1.34,0,0,1,47.14,50.7Z" transform="translate(0 0.15)"/><path class="cls-6" d="M47.14,50.7H28.78a1.62,1.62,0,0,1-1.35-1.53V26.74s.15-1.41,1.35-1.41H47.14s1.51.06,1.51,1.41V49.17A1.34,1.34,0,0,1,47.14,50.7Z" transform="translate(0 0.15)"/><path class="cls-5" d="M65.42,34.51H53.7c-.77,0-.86,1.1-.86,1.1V53.07a1.17,1.17,0,0,0,.86,1.2H65.42c1.09,0,1.13-1.53,1.13-1.53V35.27C66.38,34.56,65.42,34.51,65.42,34.51Zm.07,15.38s0,1.07-1,1.07H54.75a.88.88,0,0,1-.72-.84V37.87s.08-.77.72-.77h9.79s.8,0,1,.54Z" transform="translate(0 0.15)"/><path class="cls-7" d="M47.14,50.7H28.78a1.62,1.62,0,0,1-1.35-1.53V26.74s.15-1.41,1.35-1.41H47.14s1.51.06,1.51,1.41V49.17A1.34,1.34,0,0,1,47.14,50.7Z" transform="translate(0 0.15)"/><path class="cls-7" d="M65.49,37.64V49.89s0,1.07-1,1.07H54.75a.88.88,0,0,1-.72-.84V37.87s.08-.77.72-.77h9.79S65.34,37.14,65.49,37.64Z" transform="translate(0 0.15)"/><circle class="cls-8" cx="38.05" cy="52.51" r="0.75" transform="translate(-22.84 74.98) rotate(-74.21)"/><circle class="cls-8" cx="59.76" cy="52.86" r="0.75"/><polyline class="cls-6" points="59.66 35.98 60.53 35.98 58.86 35.98"/></g></svg>