<?xml version="1.0" encoding="utf-8"?>
<!-- Generator: Adobe Illustrator 21.0.2, SVG Export Plug-In . SVG Version: 6.00 Build 0)  -->
<svg version="1.1" id="Layer_1" xmlns="http://www.w3.org/2000/svg" xmlns:xlink="http://www.w3.org/1999/xlink" x="0px" y="0px"
	 viewBox="0 0 1367 571" style="enable-background:new 0 0 1367 571;" xml:space="preserve">
<style type="text/css">
	.st0{fill:#FFFFFF;}
	.st1{fill:#FCF4F0;}
	.st2{fill:#DBD8D7;}
</style>
<title>workbg</title>
<rect x="0.5" y="0.5" class="st0" width="1366" height="570"/>
<rect x="0.5" y="0.5" class="st1" width="1366" height="570"/>
<polygon class="st2" points="869.5,52.4 869.5,155.5 958.8,207 1048.1,155.5 1048.1,52.4 958.8,0.8 "/>
<polygon class="st2" points="349,61.1 349,117.7 398,146 447,117.7 447,61.1 398,32.8 "/>
<polygon class="st2" points="1313,319.2 1313,350 1339.6,365.3 1366.3,350 1366.3,319.2 1339.6,303.8 "/>
<polygon class="st2" points="946.1,570.5 1234.8,570.5 1235,467 1090,384 946,467 "/>
<polygon class="st2" points="371,560 371,347 186,240 1,347 1,570 352.9,570.5 "/>
</svg>
